<?xml version="1.0" encoding="utf-8"?>

<!DOCTYPE svg PUBLIC "-//W3C//DTD SVG 1.1//EN" "http://www.w3.org/Graphics/SVG/1.1/DTD/svg11.dtd">
<!-- Uploaded to: SVG Repo, www.svgrepo.com, Generator: SVG Repo Mixer Tools -->
<svg height="800px" width="800px" version="1.1" id="_x32_" xmlns="http://www.w3.org/2000/svg" xmlns:xlink="http://www.w3.org/1999/xlink" 
	 viewBox="0 0 512 512"  xml:space="preserve">
<style type="text/css">
	.st0{fill:#000000;}
</style>
<g>
	<circle class="st0" cx="367.189" cy="366.609" r="16.298"/>
	<circle class="st0" cx="258.841" cy="366.609" r="16.298"/>
	<path class="st0" d="M150.5,382.907c8.991,0,16.29-7.299,16.29-16.299c0-8.999-7.299-16.298-16.29-16.298
		c-9,0-16.298,7.299-16.298,16.298C134.202,375.608,141.501,382.907,150.5,382.907z"/>
	<circle class="st0" cx="319.033" cy="430.243" r="16.298"/>
	<circle class="st0" cx="210.692" cy="430.243" r="16.298"/>
	<path class="st0" d="M150.5,479.412c-9,0-16.298,7.299-16.298,16.29c0,8.999,7.298,16.298,16.298,16.298
		s16.299-7.299,16.299-16.298C166.799,486.711,159.5,479.412,150.5,479.412z"/>
	<path class="st0" d="M258.849,479.412c-8.999,0-16.298,7.299-16.298,16.29c0,8.999,7.299,16.298,16.298,16.298
		c9,0,16.299-7.299,16.299-16.298C275.147,486.711,267.848,479.412,258.849,479.412z"/>
	<path class="st0" d="M367.189,479.412c-8.991,0-16.29,7.299-16.29,16.29c0,8.999,7.299,16.298,16.29,16.298
		c9,0,16.298-7.299,16.298-16.298C383.487,486.711,376.189,479.412,367.189,479.412z"/>
	<path class="st0" d="M467.916,156.439c-14.93-14.946-34.795-25.016-56.858-27.811c-1.924-34.554-16.588-65.79-39.538-88.716
		C346.901,15.27,312.753-0.008,275.163,0c-35.209-0.008-67.408,13.404-91.577,35.35c-20.778,18.861-35.657,44.117-41.687,72.633
		c-5.839-0.97-11.82-1.518-17.916-1.518c-29.943-0.016-57.172,12.168-76.789,31.801c-19.624,19.608-31.808,46.838-31.8,76.789
		c-0.008,29.942,12.176,57.181,31.8,76.788c19.616,19.633,46.846,31.809,76.789,31.8h274.675
		c27.006,0.008,51.574-10.981,69.258-28.682c17.708-17.692,28.698-42.251,28.69-69.258
		C496.614,198.69,485.624,174.123,467.916,156.439z M449.85,276.89c-13.138,13.121-31.161,21.2-51.192,21.208H123.983
		c-22.967-0.008-43.644-9.273-58.715-24.327c-15.054-15.071-24.312-35.74-24.328-58.716c0.016-22.976,9.273-43.654,24.328-58.724
		c15.071-15.046,35.748-24.319,58.715-24.319c8.576,0,16.805,1.294,24.568,3.691l14.888,4.603l1.592-15.502
		c2.862-27.868,16.059-52.669,35.741-70.535c19.69-17.866,45.71-28.714,74.391-28.723c30.614,0.008,58.218,12.375,78.29,32.43
		c20.056,20.072,32.423,47.676,32.431,78.299c0,1.078-0.042,2.339-0.099,3.807l-0.49,13.744l13.487-0.514
		c19.982,0.041,37.955,8.095,51.068,21.2c13.122,13.138,21.2,31.153,21.209,51.192C471.051,245.736,462.972,263.751,449.85,276.89z"
		/>
</g>
</svg>